<?xml version="1.0" standalone="no"?>
<!DOCTYPE svg PUBLIC "-//W3C//DTD SVG 20010904//EN"
 "http://www.w3.org/TR/2001/REC-SVG-20010904/DTD/svg10.dtd">
<svg version="1.0" xmlns="http://www.w3.org/2000/svg"
 width="260.000000pt" height="260.000000pt" viewBox="0 0 260.000000 260.000000"
 preserveAspectRatio="xMidYMid meet">
<metadata>
Created by potrace 1.11, written by Peter Selinger 2001-2013
</metadata>
<g transform="translate(0.000000,260.000000) scale(0.100000,-0.100000)"
fill="#000000" stroke="none">
<path d="M260 1300 l0 -1040 255 0 255 0 0 406 c0 241 4 404 9 402 5 -1 110
-100 233 -219 122 -118 310 -300 417 -402 l195 -187 353 0 c194 0 353 2 353 4
0 2 -249 246 -552 542 -304 295 -655 639 -780 763 l-228 227 0 272 0 272 -255
0 -255 0 0 -1040z"/>
</g>
</svg>
